<?xml version="1.0" encoding="UTF-8"?>
<svg id="Character" xmlns="http://www.w3.org/2000/svg" version="1.1" viewBox="0 0 300 300">
  <!-- Generator: Adobe Illustrator 29.1.0, SVG Export Plug-In . SVG Version: 2.1.0 Build 142)  -->
  <defs>
    <style>
      .st0 {
        fill: #36453e;
      }

      .st1 {
        fill: #f6f3f5;
      }

      .st2 {
        fill: #86cb7e;
      }

      .st3 {
        fill: #966cb9;
      }

      .st4 {
        fill: #cdfbc8;
      }

      .st5 {
        fill: #cbf9c6;
      }

      .st6 {
        fill: #ea92b2;
      }

      .st7 {
        fill: #fcfcfc;
      }

      .st8 {
        fill: #d7f7c3;
      }

      .st9 {
        fill: #36463e;
      }

      .st10 {
        fill: #a7ed9f;
      }

      .st11 {
        fill: #cefdc9;
      }

      .st12 {
        fill: #84c77c;
      }

      .st13 {
        fill: #84c87d;
      }

      .st14 {
        fill: #d7f7c2;
      }

      .st15 {
        fill: #cdfcc8;
      }

      .st16 {
        fill: #85c97d;
      }

      .st17 {
        fill: #35463d;
      }

      .st18 {
        fill: #e0d7d7;
      }

      .st19 {
        fill: #3a4a42;
      }

      .st20 {
        fill: #f8bad2;
      }

      .st21 {
        fill: #966cb8;
      }

      .st22 {
        fill: #83c57c;
      }

      .st23 {
        fill: #fdbed4;
      }

      .st24 {
        fill: #38483f;
      }

      .st25 {
        fill: #394941;
      }

      .st26 {
        fill: #a6eb9e;
      }

      .st27 {
        fill: #37483e;
      }
    </style>
  </defs>
  <path class="st17" d="M211.3,229.7c.9.1,2.7.9,3.6,1.3s2.1,1.2,2.3,1.2c1.7-1.7,3.5-3.3,5.5-4.6s9.1-5.2,11.5-4.3.8.6,1.1.7,1-.2,1.5-.2c1.9,0,6.2-.2,7.6,1.3s.6,1.5.7,1.5c.3.2,1.4.4,1.8.7,2.3,1.2,4.1,3.6,5.1,6s3.6,13.3,1.2,16.1-.7.4-.8.7c-.2.8-.2,2.3-.4,3.3-.6,3-3,11.6-4.8,13.7s-3.2,4.8-5.3,6.6-9.3,3.8-12.9,4.2-4.5,0-6.5.4-.9.7-1.4,1c-1.8.7-9.9.4-12.4.4s-6-.6-8.4-.3-1.8.8-2.7,1c-2.1.6-5.4.4-7.7.4s-1.2-.3-2-.2-1.3,1-1.9,1.5c-1.7,1.4-5,3.7-7.1,4s-1.7-.1-2.4,0c-1.5.1-3.7,1.5-5.6,1.7s-3-.8-4.7-1-3.1.3-4.5.3c-6,.2-8.5-3.4-12.5-7-2.3,0-4.6-.4-6.9-.5s-4,.2-6-.2-3.5-1.5-5.2-2-3.8-.7-5.6-1.3-5-2.7-7.4-3.8-3.8-1.3-4.7-2-1.2-3.9-2.3-5.1l-.3-.2c-2.5,0-4.7-1.9-7.2-1.4s-3.2,1.1-4.8,1.5c-3.1.7-7.5.7-10.5-.5s-1.7-1.1-2-1.2c-.9-.1-3.4.4-4.5.5-2.6,0-6.2-.7-8.2-2.4s-1.1-1.2-1.6-1.5c-1.8-.8-4.2-.3-5.6-2s-1.9-6.6-.9-9.1c2.7-6.7,8.3-6.3,13.7-9.2,1.7-.9,6.3-3.9,7.1-5.4s.9-3.1,1.1-4c.4-1.9.5-3.6,1.1-5.5,1-3.4,3.8-8.4,4.3-11.6s0-1.9.2-2.8c.4-1.7,1.8-4.6,2.5-6.4s2.5-4.8,2.6-6.1-.2-1.6,0-2.5c.4-1.8,4.1-7.6,5.3-9.4s3.1-3.7,4.9-5.4c-2.5-.6-5.1-.7-7.6-1.2s-4.7-1.5-7.3-1.6-2.5,0-3.7,0c-3.9-.3-11.3-3.2-14.7-5.3s-2.5-2-3-2.2-1.3,0-2-.2c-2.2-.5-8.2-6.3-9.9-8.1s-1.8-2.6-2.5-3-.7,0-1.1,0c-3.2-.7-6.1-6.3-7.2-9.1s-1.4-6.3-2.1-7.5-.9-.6-1.2-1.6c-1.1-3.4.4-12.7,1.5-16.3s3.1-6.6,4.4-9.8c-1-4.6-1.4-9.2-.6-13.9s.9-3.6.9-3.9-1.3-.9-1.3-2.3,1.3-5.8,1.9-7.7,2.6-5.5,2.9-7.3c.8-4.2,1.2-6.2,3.1-10.1s2.8-4.9,2.8-5.4-.3-.6-.3-.9c-.4-2.9,5.5-11.5,7.4-14.1s3.6-4.4,5.4-7.1,6.2-6.2,9.3-8.2,3.7-2,4.4-2.6.4-1.3.8-1.9c1.1-1.8,9.5-4.8,11.8-5.7s4-1.2,4.2-1.4.3-1.1.8-1.5c1.8-1.6,8.7-2.9,11.1-3s2.8.2,4,0,3.3-1.3,4.6-1.8c2.8-1,7.9-2.9,10.8-2.7s1.5,1.4,2.2,1.5c4.7,0,9.4-.2,14.1.5s2.8.4,3.9,1.3.5.9,1,1.1c1,.5,3.4.9,4.7,1.4,4.6,1.6,10.3,3.5,14.4,6s4.4,2.7,4.5,5.5c6,4.3,11.7,9.1,16.7,14.7s2.7,3,2.7,3.9-.8,1.3-.6,1.8c1.4,1.6,2.9,3.3,4.2,5.1s4.6,6,5.2,8.1.1,1.2.5,2c1.3,2.8,6.1,7.5,6.6,10.3s-.3,1.8-.6,2.9c2,3.9,3.8,7.8,5.2,12s0,.8.2,1.1,1.6,1.6,2,2c2.5,2.9,6.1,8,6.1,12s-.4,1.5-.3,2.3c0,1.4.7,3.3.8,4.9.3,2.9.5,7.9-.7,10.5s-1,1.3-1.3,2-.8,2.3-1.2,3.3-.9,1.8-1.3,2.7c5.9-.5,9.6,4.8,10.6,10,2,.3,4.2,1.4,5.4,3.1s3.3,9.3,3.1,12-.8,3.7-1.1,5.4c-1.2,7-1.8,13.9-6.6,19.6,0,5.4-.5,10.9-2.7,15.9s-1.5,3.2-2.8,3.8-1.1.2-1.2.2c-.3.2-2,4.6-2.4,5.4s-1.2,2.2-1.9,3.2c-1.3,2-5.4,7.2-7.8,7.5s-1.9-.7-2.5-.6-2.5,1.4-3.3,1.8c-1.1.5-2.3.9-3.4,1.4.8,2.7,1.9,6.9-.7,9l.3.4c1,0,2.1-.1,3,0ZM132.1,18.9c-3.8.6-7.2,1.7-10.9,2.6s-7,1.1-10.1,2.4-1.3,1.3-2.6,1.9c-2.5,1.2-5.9,1.8-8.6,2.9s-5.5,2.2-6.1,2.8-.2.8-.4,1.1c-.3.7-7.1,5.4-8.3,6.4s-3.7,3-5.1,4.4-2.3,3.3-3.5,4.9c-3.6,4.4-7,7.7-8.9,13.5s-4.2,8.3-5.6,12.7-.3,2.8-.6,4.6c-.5,3.3-3.7,8.8-3.3,12.2s0,3.2-.8,6.3-1.1,5.9-.9,9,.6,2.8.2,4.3c1.3-.4,2.4-.1,2.2,1.4-2.7,4.9-5.7,9.4-6.8,15s-.7,3.6-.9,5.2-.4,4.2,0,5.1.9.8,1.3,1.6c.6,1.5.8,3.5,1.3,5.1.7,2.3,3.1,7,4.8,8.7s1.8,1,2.6,1.6c1.4,1.1,2.9,3,4.3,4.3,4.8,4.4,14,9.3,20.2,11.4,2.2.7,5,1.7,7.2,2.2,4.6,1.2,10.2.6,15,1.6s2.4,1.1,3.6,1.3c2.1.4,5.2-.1,7.6,0,2.4.2,4.8.6,7.2.7,3.3.1,6.7-.2,10,.3v.5c-.8,0-1.4.6-2.1.8-2,.7-5.4,1.2-7.6,1.3s-3.7-.2-4.7,0-.2.5-.8.7c-1.5.5-3.1.3-4.8,1.1-3.8,1.9-6.8,6.3-9,9.8s-2.6,4.5-3.6,8-2.4,5.3-3.3,7.8-1.5,5-2.4,7.5-2,4.5-2.8,6.8c-2,5.6-3,11.9-4.9,17.6s-.7,2.2-1.2,2.7-.2.3-.5.3l-.5-2c0-.2,0-.3-.3-.2-1.1.3-3.8,2.8-5.1,3.6-4.8,2.6-13.5,2.6-12.9,9.9s1.4,2.7,3.5,3.1c-.1-1.3.2-2.3.8-3.4s3.8-3.4,5-3.6,1.3,1.1.5,1.9-2,1.3-2.7,2.5-.9,3.3.4,4.3,2.6,1,3,1h5.3c0-.9,0-1.9.2-2.7.6-2.4,4.8-6.5,7.5-6s.7.5.8.9c0,1.2-1.3,1.4-2,2s-.5.5-.7.7c-1.4,1.3-2.8,2.5-2.5,4.6s1.9,1.7,3,1.9c2.5.5,4.8.2,7.2-.5s4.6-2.2,6.6-1.8,3.6,1.7,3.9,1.4l-.5-2.5c0,0,.2-.2.2-.3,0-.1-.2-.2-.2-.3,0-.3,0-.6,0-.8s.1-.9-.2-1.2c.1-.7.3-1.3.2-2-1.7,0-1.5-1.7-1.5-3,.1-3.9,1.3-10.3,2.1-14.2s.6-1.8.5-2-.6-.2-.7-.6,0-1.4,0-1.8c.2-1.4,1-4.1,1.4-5.7,1.5-5.9,3.3-11.7,4.7-17.6s1.2-7.2,2.5-10.2c2.2-.3,1.8,4.2,1.7,5.6-.6,9.5-4.9,19-6,28.2s-1.3,12.1-1,17.5c.6,15.1,7.7,21.4,21.8,24.8,4.6,1.1,9.4.5,14,1.7l-2.2-4.8c-.8-2.2-1-4.9-1.8-7.1s-.7-1-1-1.7c-1.2-3.6.1-13.7,2.5-16.8s.8-.6,1.1-.9c1.3-1.6,2.3-3.6,3.9-5,.7-.4.8-.6,1.5-.8s1.6-.2,2.6,0c.5-.1.5-.9.8-1.2,2.8-3.2,11.2-5.4,15.4-5s1.8.8,3,1.2,3.2.4,4.9.7c2.8.4,9,3.4,11,5.4s1,2.8,1.4,4.5,1.3,3,1.8,4.6c1,3.3,1.3,12.5,0,15.7s-1.2,1.2-1.3,1.3c-.1.4,0,2.2,0,2.7-.5,3.3-2,6.2-3.9,8.9l8.1-.7c4.1-1.9,9.4-1.1,14-1.2.4,0,.7-.2,1-.2,2,0,4.9.6,6.9.2s.6-.6,1-.8c1-.6,4.6-.4,6-.5,3.3-.3,7.7-1,10.8-2.2s1.6-.6,2.6-1.7c1.7-1.8,5-5.5,5.9-7.6,1.9-4.5,2.7-9,3.7-13.7s.7-2,.8-2.5c.2-1.1-.3-4.7-.4-6.1s0-2.1-.5-2.9-.3-.1-.3-.1c-.2-.4-.4-1.3-.7-1.8-1.6-2.9-3.1-2.9-5.9-3.9s-.5-.2-.8-.3c-.7-.2-1.3-.7-2.3-.8-1.6-.2-3.4.3-5,.1s-1-.4-1.4-.5c-1.3-.2-7.8,3.5-9.2,4.4s-2.7,2-3.8,3-2.1,2.4-2.5,2.5c-.7.3-1.2,0-1.7-.4,0-.2.2-1.5.2-1.6,0-.7-2.9-2-3.6-2.3-1.6-.6-3.4-.3-5.1,0-.1,1.1-.3,2.2-.6,3.2s-.8,2.2-1.5,2.2l-.3-.2-.4-1.3c.2-3,0-6.3.2-9.3s.8-2.9.8-3.4c0-1.1-.9-5.1-1.2-6.5-1.1-5.3-2.6-8.2-4.4-13s-.6-2.5-1-3.7-3.1-5.3-3.9-6.5-3.9-4.5-3.4-6,.6-.7.6-.7c.4,0,1,0,1.4.3,1.8,1,5.8,6.7,7.1,8.6s3.5,5.8,3.5,7.1-.6,1.1-.5,1.5c0,.7,1.9,3.8,2.4,4.7s1.1,2.6,1.6,4h.3c1.8-.4,3.6-.9,5.4-1.6s4.5-2.5,5.6-2.5.6.2.9.2c1.8-2.2,3.6-4.5,5-7,1.1-2,2.9-6.8,4.1-8.2s1.5-.7,1.7-1c.4-.4.4-1.6.6-2.2,1.3-4.3,2.3-9.3,2.8-13.7s-.2-.5-.1-.8c0-.4,1.9-2.6,2.3-3.3,2.3-3.8,3.9-8.7,4.4-13.1s1.3-10,0-13.2-1.7-3.7-3.8-3.5-.5,0-.8,0c-1.1.5-1.4,3.1-1.4,4.1l-.2.3c.3,1.8.4,4-.8,5.4-.4-.2-.3.4-.7-.7-.5-1.6-1-5.4-.8-7.1s.2-1.8,0-3.6-.3-4-.9-6-2.5-2.5-4.5-2-.4.3-.5.3c-1.1.4-1,0-1.5,1.2-.8,2.1-.3,5.9-.7,8.3s-.4,2.4-1.2,2.6c-.5-.9-.7-1.2-.8-2.3-.3-3.4.6-10.5-1.7-13.2s-4-1.1-5.5.6c-3.6,3.7-2.4,9.3-3.4,14.1s-1.3,3.9-2.3,5.6c0,.6.7.8.8,1.1,1,1.6.7,2.5-1.3,1.8-2.9-1.1-2.6-4.1-4.5-5.4s-3.2-1.3-4.8-.7-2.1,1.9-2.4,2.6c-1.1,2.7-.8,8.3.7,10.7s1,.6,1.6,1.5c2.4,4.1,3.5,7.5,7.4,10.7,2,1.7,4.9,2.2,6,4.9,0,.4-.2.5-.5.6-.9.5-3.7.3-4.7,0s-2.7-1-2.9-.9l-2.9,6.6h-.5s-.7-2.5-.7-2.5c0-.2,0-.4,0-.7,0-.4,0-.8,0-1.3,0-.9.8-4.8.6-5.3s-.3-.2-.4-.3-.1-.2-.2-.2c-.2-.4-.5-1-.8-1.3-.7-.8-5.4-4.2-6.5-4.8s-4.2-2-4.9-2.2c-1.5-.4-3.2,1-4.6,1.6s-4.1,1.7-6.2.7c-5.7,2.7-11.4,4.8-17.6,5.9s-8.9,1.8-12.7,1.7c-1,0-2.2-.4-3.2-.3-1.4,0-3,.5-4.4.5s-2.9,0-4.3-.2v-.5c1.1-.3,2.1-.7,3.2-.9,5-1.2,10.2-1.4,15-2.7s4.2-1.3,6.1-1.9c5.1-1.7,9.7-3.6,14.7-5.5.8-.3,2.1-.8,3-1s1.4,0,2.1-.1,5.4-3.1,6-3.6c.3,0,.6-.1.8-.2,1.6-.8,5.2-2.8,6.5-3.9s.8-1.1,1-2.4,1.4-5.4,2.7-6.6,4.5-1.8,6.4-1.3.5.4,1,.5,1.1-.4,1.6-.7,3.7-3.4,3.9-3.7c.5-.9.2-2.7.3-3.8.2-2.6.9-5.1,2.4-7.2s1.1-1.1,1.5-1.7c1.8-1.1,2.9-1.6,5-1.2s1.8.8,2.1.8.3-.1.4-.2c.5-.5,1.9-3.4,2.2-4.2,1.3-3,2.7-7.8,2.7-11.1s-1.2-5.8-1.4-8.4.2-1.5,0-2.6c-1.3-4.7-6-9.9-9.5-13.2s-2-1.1-1.8-2.3,1-.8,1.8-.9.3,0,.2-.2c-.9-2.9-1.7-6-2.8-8.8s-3.8-7.5-5.5-11.1-3.9-7.8-6.8-11.7-3.3-3.6-3.9-5.3-.4-1.8-1.8-3.3c-4-4.5-10.3-9.2-15-13.3s-2.2-1.7-3.1-2.6-.5-.8-1-1v-1c-4.4-2.2-8.8-4.7-13.6-6.2s-3.9-.7-5.5-1.4-1.5-1.2-2.3-1.4c-2.8-1-10.5-1.5-13.7-1.7s-2.6.2-3.7,0-.8-.4-1.2-.5-1.2.2-1.7.3ZM147.2,249.3c0,.2-.5.5-.7,1.1-.6,1.8-.7,7.6-.3,9.4s.9,1,1.1,1.7c1,3.1.7,7,2.5,10.1,2.6,4.5,8.7,9.9,14.1,10.3s.9.1.9-.2c-2.9-.7-5-2.5-6.9-4.8s-2.3-3.8-3.4-5.1c-.5-2-1.4-4-1.5-6.1-.5-8,.6-15.8,7-21.2.8-.7,2.8-2.4,3.6-1.2,0,0,0,.5-.2.8s-1,.6-1.3.9c-5.1,4.8-9,11.8-7.7,19s4.4,12.2,10.2,15.5c2,1.1,4.9,2,7.1,1.9s5.9-2.6,6.4-3c6.4-5,7.2-20.8,3.9-27.5s-2.9-3.9-3.2-4.9-.1-.8,0-1.2c1.1.3,1.2-.2,2.2.9s3.5,8.1,3.8,9.6c.8,4.4.6,12.1-.8,16.3s-3.3,7.1-5.7,8.5c-.7.4-1.5.6-2.2,1l-2.9.7c0,.8,1.3.4,1.8.3,1.7-.2,3.1-.9,4.5-1.9s5.1-4.5,5.9-5.5c1.8-2.5,2.7-6.9,3.5-9.8s.6-1.2,1.3-2.4.5-8.8.3-10.8c-.5-4.3-1.3-5.2-2.6-8.8s-.2-1.4-.4-1.8c-.6-.9-5.5-3.7-6.6-4.1-3-1.1-5.2-1.1-8.2-1.6s-1.6-1-2.4-1.1c-2.1-.2-4.6.8-6.6,1.5s-3.2,1.2-4.6,1.9-4,2.8-4.7,2.7-.7-.5-1.5,0c-1.6,1-5,6.5-5.8,8.3s0,.5,0,.5Z"/>
  <path class="st10" d="M132.1,18.9c-.3.5-1.1.6-1,1.3,1.5.4,2.7.8,4.3.7s3.4-.9,4.3-.8,3.6,1.4,4.8,1.7c1.9.5,5.2.7,6.6,1.8s.8,1,1.3,1.3c1.3.8,3,.6,4.4.8,4.5.8,7.9,2,11.6,4.7s9.7,8.1,14.1,12c1.9,1.7,5.5,4.3,7,6.1,2.2,2.8,4.5,7,6.5,10.1s4.4,5.5,5.1,8,.4,3.5,1,5.1,1.5,2.4,2.2,3.5,1.3,2.6,1.9,3.8c1.4,3,2.9,6.2,3.7,9.5-1-.1-1.7-.5-2.8-.3-1.9.3-.3,1.4.5,2,7.4,5.9,11.4,12.2,12.9,21.7.8,4.8-.8,9.9-2.2,14.4s-1.1,2.7-1.2,4.1c-2.1-.4-3.3.1-5,1.2.5-.7,1.3-2.3,1.7-3.1s2-4.8-.1-4.6-1,.9-1.2,1.5c-1.1,2.4-1.7,5.1-2.7,7.6,0,.6.4.6.8.4-1.5,2.1-2.2,4.7-2.4,7.2-.5.2-.9.8-1.3,1.2-1.4,1.7-2.9,3.2-4.4,4.9s-1.1,1.1-1.1,1.7c-1.9-.5-4.9-.1-6.4,1.3s-2.3,4.8-2.7,6.6c-2.4,1.5-4.6,3.4-6.9,5.1s-1,1-1.5,1.4-5.4,3.5-6,3.6-1.4,0-2.1.1-2.2.6-3,1c-.4-.2-.8-.2-1.2-.1-2.6.3-6.2,1.9-8.8,2.6-6.2,1.7-12.9,2.5-19.3,3.1s-13.9-.8-20.2-1.3c-6.9-.6-13.4-.8-20.3-2.4s-8.2-3-11-3-2.5.6-3.5.5-5.2-1.9-6-2.3c-2.3-1.2-5.9-4.8-8.5-4.5s-1,.6-1.4.4c-1.6-1.7-3.6-3.1-5-4.9s-1.4-1.9-1.9-2.8c-.9-1.3-2.4-4.8-3.8-5.3s-1-.2-1.6,0h-.3c-1.4-4.1-3.4-8.2-3.2-12.5s2.4-13.9,4-16.7,3-3,5-4.7,2.1-2.5,3.4-3c.4-.5-2.4-1-2.8-1-1.6,0-3.2.5-4.7.8s-.3,0-.2-.2c0-.6.6-1.5.8-2.3.8-3.2,1.1-6.8,2-9.9s3-6.4,2.4-8.3-1.1,0-1-1,1.5-4,1.9-5.3c.8-2.4,1.5-4.6,1.1-7.1s-.9-1.2-.8-1.8c1-1.8,1.3-4.1,2.1-6,1.1-2.6,4-5.5,5.4-8.2s1.2-3.3-.1-4.7v-.3c2.1-2.5,4.3-5,6.6-7.3s6.3-6.7,9.4-8.9,5.5-2.9,5.8-4.6-.2-1.2-.2-1.7,2-1.8,2.5-2l12.3-5.5c.3-.1.2-.4,0-.5-.3-.2-1,.2-.8-.4,3.1-1.4,6.8-1.6,10.1-2.4s7.1-2,10.9-2.6ZM156.2,28c-1,.2-1.4,1.3-.9,2.2s4.2,2,5.5,2.2,3,.3,3.2,0c.2-.6-.3-1.2-.6-1.6-1.3-1.6-5-3.4-7.1-2.9ZM102,36.6c-1.4,0-4.8,1.2-5.2,2.7s0,1.1.5,1.3c1.6.5,4.5-2.5,5.6-3.6,0-.6-.5-.4-.9-.4ZM93.9,40.6c-2,.2-6.3,3.8-6.6,5.8s.4,2.1,1.5,2,5.1-3.7,6-4.8,1.6-3.3-.9-3.1ZM186,82.7c.5-2,1.3-4,1.7-6.2,2.9-17.5-10.2-36-28.8-34.8-8.9.5-17.7,7.4-21.4,15.2-.2.4-.7,2-.7,2-.1.1-.8,0-.9.5-.2.6,1.3,3.9,1.7,4.6,1.3,2.6,2.7,4.6,4.8,6.6s1.2.7,1.4,1,.2,1,.5,1.5c.7,1.1,4.5,3.9,5.7,4.7,2.3,1.5,6.3,3.1,8.9,3.8s2.5.3,3.2.7.6.6,1,.8c1.2.8,2.8.6,4.2.8s2.7.4,4.4.7,2.3.6,3.4.6c2.4.2,9.2-.7,11.5-1.5s1.3-1.3-.6-1.1ZM123,61.8c-.1-.1-.5-.1-.6-.3-.4-.4-.7-1.1-1.1-1.6-7.2-8.1-19.1-12-29.4-7.6-14.3,6.1-19.9,23.5-14.6,37.7s3.1,6.1,5.3,8.9v.2c-.4,0-1.9,1.2-1.5,1.5.5,0,.9,0,1.4,0,4.1-.5,7.1-3.2,11.1-4.4s4.7-1.2,7.7-3.2,3.3-2.3,5.6-3.6c5.9-3.4,10.6-8.7,13-15s.9-3.2,1.4-4.7,1.2-2.4,1.6-3.6.7-3.7.2-4.3ZM138.1,91.8c-.3-2.6-.8-5.2-1.7-7.6s-1.9-4.7-2.6-5.1-1.1.2-1.2.7.3,1.2.4,1.6c.8,2.3,3.3,8.1,4.6,10s.2.5.5.4ZM201.8,87.1c.1-.8-1.2-1.1-1.8-1.2-2.2-.3-6.2.3-7.9,1.8s-1.5,2.9.7,2.5l9-3.1ZM200.7,90.2c-1,.1-2.2.8-1.4,2s5.1.3,6.3-.2,1.5-.5.5-1.1-4.2-.9-5.4-.7ZM84.3,105.3c-1.1.1-5.7,1.2-3,2.4,1.8.8,4.7.7,6.7.7s2.4.5,2.9-.8c.9-2.8-5-2.5-6.5-2.3ZM202.1,107.9c-1.9.2-1.9.5-2,2.2s-.2.3-.2.7.7,1.1.4,1.5c-5.8,4.8-12.1,9.2-18.9,12.5-2.5,1.2-5,2.1-7.5,3.3s-.6,0-.5.5c-.1,0-.3,0-.5,0-.6,0-.2.2-.3.3-.3.4-8.8,3.3-10,3.7-3.7,1.3-7.5,2.4-11.3,3.1-14.2,2.7-28.4,4.7-42.9,4.2,0-.5-.3-.3-.6-.3-9.2-1-19.5-2.2-28.3-4.9s-3.5-1.5-5.3-2.2c-.2-.2.2-.8.1-1.2s-.8-.6-.8-.6c-.2-.3,0-1.2-1-1.3s-4.2,2.2-5,3.2c-1.5,1.9-2.8,5.4-2.4,7.8s.7,1,.8,1.1,0,.5.1.8c1.8,3.7,3.9-3,4.4-4.3,5.7,6.3,14.5,14.5,22.1,18.1,16.7,8,34.7,10.4,53,7.4,16-2.6,28.7-8.7,40.8-19.5,8.6-7.7,16-17.2,20.2-28.1,1.1.1,3.5,2.4,4.4,2.4s.6-1.7.6-2.4.2-.4.2-.7c0-2.9-3.4-6.8-6.4-7v-.3c-.2,0-.3.2-.3.2-.2,0-.5,0-.7,0v-.3s-.3,0-.3,0v.2c-.5,0-1,0-1.4,0s0-.3-.5-.2v.3ZM80.1,109.5c-2.1.3-5.3,1.5-6.5,3.4.2.2.3.2.6.3.4,0,2.2-.1,2.7-.2,1-.1,4.7-.7,5.3-1.4,1.2-1.3-.7-2.2-2.1-2.1Z"/>
  <path class="st16" d="M111.1,23.9c-.1.6.5.2.8.4s.2.4,0,.5l-12.3,5.5c-.5.3-2.5,1.6-2.5,2s.3,1,.2,1.7c-.3,1.8-4.3,3.6-5.8,4.6-3.1,2.2-6.7,6.1-9.4,8.9s-4.5,4.9-6.6,7.3v.3c1.4,1.4.9,3.2.1,4.7-1.4,2.7-4.3,5.6-5.4,8.2s-1.1,4.2-2.1,6c-.1.6.7,1,.8,1.8.4,2.5-.3,4.8-1.1,7.1s-1.8,4.2-1.9,5.3.7.3,1,1c.6,1.9-1.8,6.3-2.4,8.3-.9,3.1-1.2,6.7-2,9.9s-.7,1.7-.8,2.3,0,.3.2.2c1.5-.3,3.2-.9,4.7-.8s3.2.5,2.8,1c-1.4.5-2.3,2.1-3.4,3-2,1.7-3.6,2.2-5,4.7s-3.7,13.3-4,16.7,1.8,8.4,3.2,12.4h.3c.6,0,1,0,1.6.1,1.4.5,2.9,4,3.8,5.3s1.3,2,1.9,2.8c1.4,1.8,3.4,3.2,5,4.9.5.2.8-.4,1.4-.4,2.6-.3,6.2,3.3,8.5,4.5s5.3,2.2,6,2.3c1,.1,2.5-.5,3.5-.5,2.8,0,7.9,2.3,11,3,6.8,1.6,13.3,1.8,20.3,2.4,6.3.5,14,1.9,20.2,1.3s13.1-1.4,19.3-3.1,6.3-2.3,8.8-2.6.8-.1,1.2.1c-5,2-9.6,3.9-14.7,5.5s-4.2,1.4-6.1,1.9c-4.8,1.3-10,1.5-15,2.7s-2,.6-3.1.9v.5c1.3.1,2.8.2,4.2.2s3-.5,4.4-.5,2.2.3,3.2.3c3.8.1,8.9-1,12.7-1.7,6.2-1.1,11.9-3.2,17.6-5.9,2,1,4.2.1,6.2-.7s3.1-2,4.6-1.6,4.1,1.8,4.9,2.2c1.1.6,5.8,4,6.5,4.8s.6,1,.8,1.3c-2.7-1.2-8.4-2.1-11.3-1.8s-2.1.5-3,.7c-1.9.3-3.8.2-5.7.4-3.9.4-7.7,2.1-11.6,3-5.7,1.3-10.6,1.4-16.3,2s-4.2,1.2-6.4,1.3c-5.9.4-11.6.5-17.5,1.2s-1.3,0-2,0c-1.5.2-5.4,1.7-6.7,2.5s-6.5,6.4-7.6,7.9-3.4,6.2-4.5,8.6-1.6,2.9-1.7,3.5.2,1.6.1,2.5c-.3,2.6-3.8,7.5-5.1,10.2-2.3,5.1-3.4,11.9-6.2,16.3s-1.4,1.6-1.4,1.7c0,.4.8.5,1.1.7.6.3,1.3,1,1.8,1.2.8.4,2,.5,2.9.9,1.6.7,3.1,2.1,3.3,4s-1.2,1.7-2.6,1.9c-2.8.4-3.1,0-5.7-.2-2.5-.2-7.7-.4-10.1-.2s-3.5,1.1-5.1,1.5-5.3.7-5.4,2.1.9,2.6,1.1,2.9.3.4.7.4c-.7,1-1,2.1-.8,3.4-2.2-.4-3.3-.7-3.5-3.1-.6-7.3,8.2-7.3,12.9-9.9,1.4-.8,4.1-3.3,5.1-3.6s.2,0,.3.2l.5,2c.3,0,.3,0,.5-.3.4-.6.9-2,1.2-2.7,1.9-5.7,2.9-12,4.9-17.6.8-2.2,2-4.5,2.8-6.8s1.5-5,2.4-7.5,2.6-5.3,3.3-7.8,1.7-4.9,3.6-8,5.3-7.9,9-9.8c1.7-.8,3.2-.6,4.8-1.1s.7-.7.8-.7c1-.2,3.4,0,4.7,0,2.2-.1,5.5-.6,7.6-1.3.7-.3,1.3-.8,2.1-.8v-.5c-3.3-.6-6.7-.2-10-.3-2.4,0-4.8-.5-7.2-.7-2.3-.2-5.4.4-7.6,0s-2.3-1-3.6-1.3c-4.8-1-10.4-.5-15-1.6s-5-1.5-7.2-2.2c-6.2-2.1-15.4-7-20.2-11.4s-2.8-3.1-4.3-4.3-1.9-.9-2.6-1.6c-1.7-1.7-4.1-6.4-4.8-8.7s-.7-3.7-1.3-5.1-1-1.1-1.3-1.6c-.5-.9-.2-4,0-5.1.2-1.6.5-3.6.9-5.2,1.2-5.6,4.2-10.1,6.8-15,.2-1.5-.9-1.8-2.2-1.4.4-1.5-.1-2.9-.2-4.3-.1-3.1.2-6,.9-9s1.2-2.9.8-6.3,2.8-8.9,3.3-12.2-.1-2.5.6-4.6c1.4-4.4,4.1-8.1,5.6-12.7s5.3-9,8.9-13.5,2.2-3.4,3.5-4.9,3.5-3.1,5.1-4.4,8-5.7,8.3-6.4,0-.8.4-1.1c.6-.6,5-2.4,6.1-2.8,2.7-1,6-1.7,8.6-2.9s1.5-1.4,2.6-1.9Z"/>
  <path class="st8" d="M166,242.8c-.4.3-.7.9-.3,1.3s2.4-.2,3.1-.3c2-.1,4.3.2,6.2,0s.6,0,.6-.5c.7.3,3.2,1.5,3.4,1.5-.2.4-.2.8,0,1.2.3.9,2.6,3.6,3.2,4.9,3.3,6.7,2.5,22.6-3.9,27.5-.5.4-6,3-6.4,3-2.3,0-5.2-.8-7.1-1.9-5.8-3.3-9.1-9.1-10.2-15.5s2.6-14.2,7.7-19c.3-.3,1.1-.7,1.3-.9s.1-.7.2-.8c0,0,2.1-.7,2.4-.5Z"/>
  <path class="st16" d="M117.8,196.9c.3-.6.5-1.1.7-1.8,1.8-1.1,2.1,1.6,2.2,2.9.4,3.2.3,8.3.2,11.6s-.3,1-.2,1.5.8.6,1.1,1.3c1,2.6-1.2,10-1.4,13.2s0,1.4,0,1.8c.2.6.9.4,1.1.6.5.6-1.2,8.6-1.4,10-.3,2.2-.4,4.4-.4,6.6.7,0,1.3-.3,1.6.5.6,1.5.2,4.1.5,5.8s1.2,3.9,1.6,4.3.7.4,1.1.6c1,.7,2,3,2.8,4.1s2.2,2.9,3.4,4.1c2.8,1,6.1,1.4,8.8,2.4s1.2.7,1.8,1.2c-1.3-4.6-1.6-9.5-.3-14.1s3.9-11.9,9.8-15.2c-1.6,1.4-2.6,3.4-3.9,5s-.7.5-1.1.9c-2.4,3.1-3.7,13.2-2.5,16.8s.8,1.1,1,1.7c.8,2.2.9,4.9,1.8,7.1l2.2,4.8c-4.6-1.2-9.4-.6-14-1.7-14.1-3.3-21.1-9.6-21.8-24.8s.4-12.1,1-17.5c1.1-9.2,5.5-18.7,6-28.2s.5-5.9-1.7-5.6Z"/>
  <path class="st4" d="M132.1,18.9c.6,0,1.2-.4,1.7-.3s.8.4,1.2.5c1.1.2,2.5,0,3.7,0,3.2.2,10.9.8,13.7,1.7s1.3,1.1,2.3,1.4c1.6.6,3.7.8,5.5,1.4,4.8,1.5,9.2,4.1,13.7,6.2v1c.4.2.6.7.9,1,.9.9,2.1,1.7,3.1,2.6,4.6,4,11,8.8,15,13.3s1.1,1.5,1.8,3.3,2.8,3.8,3.9,5.3c2.9,3.9,4.6,7.4,6.8,11.7s4,7.5,5.5,11.1,1.9,5.9,2.8,8.8c0,.3,0,.2-.2.2-.7,0-1.6-.2-1.8.9s1.1,1.6,1.8,2.3c3.5,3.3,8.2,8.5,9.5,13.2s0,1.5,0,2.6c.1,2.6,1.4,5.7,1.4,8.4s-1.4,8.1-2.7,11.1-1.7,3.7-2.2,4.2-.2.2-.4.2-1.5-.7-2.1-.8c.2-1.4.8-2.7,1.2-4.1,1.4-4.6,3-9.6,2.2-14.4-1.6-9.5-5.5-15.8-12.9-21.7s-2.4-1.7-.5-2,1.8.2,2.8.3c-.8-3.2-2.3-6.5-3.7-9.5s-1.2-2.6-1.9-3.8-1.7-2.3-2.2-3.5-.5-3.5-1-5.1c-.8-2.5-3.6-5.7-5.1-8s-4.3-7.3-6.5-10.1-5-4.4-7-6.1c-4.4-3.9-9.3-8.6-14.1-12s-7.1-3.9-11.6-4.7-3.1,0-4.4-.8-.8-.9-1.3-1.3c-1.4-1-4.8-1.2-6.6-1.8s-3.8-1.6-4.8-1.7-3.1.7-4.3.8-2.8-.2-4.3-.7c-.1-.7.7-.9,1-1.3Z"/>
  <path class="st26" d="M147.2,249.3c0,0,0-.4,0-.5.9-1.8,4.3-7.3,5.8-8.3s.8,0,1.5,0,3.8-2.2,4.7-2.7c1.5-.8,3.1-1.4,4.6-1.9s4.5-1.8,6.6-1.5,1.2.9,2.4,1.1c2.9.5,5.2.5,8.2,1.6s6.1,3.2,6.6,4.1.2,1.2.4,1.8c1.3,3.7,2.1,4.6,2.6,8.8s.7,9.3-.3,10.8-.8.7-1.3,2.4c-1.8.9-2.3,3.2-3.3,4.9s-1,1.8-1.8,1.9c1.4-4.3,1.6-11.9.8-16.3s-2.9-8.5-3.8-9.6-1.1-.7-2.2-.9-2.6-1.2-3.4-1.5-1-.6-1.7-.8c-2-.6-6.2-1-7.9.3-.3-.2-2.3.4-2.4.5-.8-1.3-2.8.5-3.6,1.2-6.4,5.5-7.5,13.2-7,21.2.1,2.1,1,4.1,1.5,6.1-3.2-3.6-3.4-3.5-4-8.5s-1.6-3.2-2.1-4.8-.6-6.3-.9-8.2-.1-.8-.3-1.1ZM178.9,237.5c-.6.1-1,.7-.9,1.4.2,1,4.1,3.2,4.9,4.2.9.5,1-.7.9-1.4-.3-2-2.7-4.6-4.9-4.1ZM187,248.7c.5-1.5.5-4.9-1.8-4.7s-1.3,1.2-1,2.2,1.9,2.2,2.2,2.4.3.2.6.2Z"/>
  <path class="st14" d="M246.5,236.4c.1,0,.3.5.7.3l1.3,2.7c.1,1.4.6,5,.4,6.1s-.6,1.7-.8,2.5c-1,4.7-1.8,9.3-3.7,13.7-.9,2.1-4.2,5.8-5.9,7.6s-1.2,1.1-2.6,1.7c-1.2-.8-1.8-2.7-2-4-1.6-8.8-.5-19.7,4.5-27.3s4.6-5.4,8.1-3.2Z"/>
  <path class="st16" d="M225.8,266.8c.4,0,.3.2.5.4.9,1.5,2,3.6,4.1,3.4-.2-.6-.3-1.5-.5-2,1.8.2,2.7-.8,4-1.7.3,1.4.9,3.2,2,4-3.1,1.2-7.5,1.9-10.8,2.2-1.5.1-5,0-6,.5s-.6.7-1,.8c-2,.4-4.8-.2-6.9-.2s-.6.2-1,.2c-4.6,0-9.9-.7-14,1.2l-8.1.7c1.9-2.7,3.4-5.6,3.9-8.9,0,0,.1,0,.2.2,0,.6,0,1.2,0,1.8,1.1-.5,2.2-1.2,3.3-1.6,2.6-1,5.3-1.5,7.9-.1s1.2,1.2,3.1,1.3,5.3-.2,8.1,0c2.4.2,5.5,1.1,7.7,1s1.6-.2,1.9-.3c.8-.4,1.8-1.9,1.8-2.9Z"/>
  <path class="st15" d="M190,190.4c-.5,1.5,2.6,4.7,3.4,6s3.5,5.4,3.9,6.5.5,2.4,1,3.7c1.8,4.8,3.3,7.7,4.4,13s1.3,5.4,1.2,6.5-.8,2.3-.8,3.4c-.2,3,0,6.3-.2,9.3-.8,1.4-1.4,3.4-3.4,3-.5-3,.5-5.9.7-8.8.3-5.1-1.2-12.3-2.6-17.2s-1.6-2.6-2-3.5c-1.1-2.2-2.1-4.4-3.2-6.6s-2.5-3.2-2.1-5.6,1-1.2.9-1.7l-3.2-6.6c-.1-1.1.8-2.1,1.9-1.4Z"/>
  <path class="st16" d="M240.2,230.4c-1.5.6-3.4-.3-4.9,0s-6.4,2.6-8.1,4c-3,2.6-3.7,5.1-5.3,8.4s-2.7,5-3.5,7.7-.6,4-1.1,5.1-1.1,1.2-1.5,1-1.1-1.9-1.3-2.3c-1.4-3.6-1.7-9.7-.9-13.4s.6-1.6.8-2.2c.5.5,1,.7,1.7.4s2-2.1,2.5-2.5c1.2-1,2.6-2.2,3.8-3s7.9-4.6,9.2-4.4.7.4,1.4.5c1.7.2,3.4-.3,5-.1s1.5.6,2.3.8Z"/>
  <path class="st16" d="M229.7,193.8c-.2.5-.2,1.7-.6,2.2s-1.2.4-1.7,1c-1.2,1.3-3,6.2-4.1,8.2-1.4,2.5-3.2,4.7-5,7-.3,0-.6-.2-.9-.2-1.1,0-4.2,2-5.6,2.5s-3.6,1.2-5.4,1.7h-.3c-.5-1.5-1-2.8-1.6-4.1s-2.3-4-2.4-4.7.5-.8.5-1.5c0-1.4-2.7-5.8-3.5-7.1.3,0,.5.2.7.4,2.8,2.5,5.4,5.7,8.2,8.1s1.4,1.3,2.6,1.2,4.4-.6,5.4-1,2.7-2.2,3.6-3,2.6-1.8,3.4-2.7,2.1-3.2,3.2-4.5,2.4-2.9,2.7-3.1.7,0,.8-.3Z"/>
  <path class="st5" d="M229.7,193.8c-.2.3-.7.3-.8.3,0-3.8,1-7.4,1.7-11s.2-2.6.4-3.8c.4-2.3,1.9-4.1,2.8-6.2,2.1-4.7,2.6-8.4,3.4-13.4s.9-3.7.8-5.5-.7-4.7-1.6-6-1.3-.9-1.1-1.9c2.1-.2,3.1,1.7,3.8,3.5,1.3,3.2.4,9.7,0,13.2s-2,9.3-4.4,13.1-2.2,2.9-2.3,3.3.2.5.1.8c-.6,4.4-1.6,9.4-2.8,13.7Z"/>
  <path class="st12" d="M147.2,249.3c.2.3.3.7.3,1.1.3,1.9.4,6.7.9,8.2s1.9,2.6,2.1,4.8c.6,5,.9,4.9,4,8.5s2.2,3.6,3.4,5.1c1.8,2.3,3.9,4.1,6.9,4.8,0,.3-.7.2-.9.2-5.3-.4-11.4-5.8-14.1-10.3-1.8-3.1-1.5-6.9-2.5-10.1s-1-1.3-1.1-1.7c-.4-1.9-.2-7.6.3-9.4s.6-.9.7-1.1Z"/>
  <path class="st13" d="M211,181c-1-2.7-3.9-3.2-6-4.9-4-3.3-5-6.6-7.4-10.7s-1.3-1-1.6-1.5c-1.6-2.4-1.9-8.1-.7-10.7s1.7-2.3,2.4-2.6c-.2,2.1-.8,4.4-.7,6.5s.9,5.4,1.6,6.9,5.6,8.1,7.3,9.6,3,2.7,3.8,3.3,2.6.9,3.6,1.6,2.2,1.8,1.3,2.4-3.1.5-3.8.2Z"/>
  <path class="st13" d="M91.3,253.4c-.1,1.1.4,2.2.9,3.2,1.6.4,2.5.7,4.1.3,3.3-.9,4.2-2.3,8.2-1.9s2.8,1,4.3,1.7h.2l.5,2.5c-.2.2-3.2-1.3-3.9-1.4-2.1-.4-4.6,1.2-6.6,1.8s-4.7.9-7.2.5c-1.1-.2-2.8-.6-3-1.9-.3-2.1,1.1-3.3,2.5-4.6Z"/>
  <path class="st16" d="M205.8,181.7c-.2,2.7-1,5.3-1.3,8s.4,4.3-1.9,3.9-3.1-3.3-3.3-4.2c-.4-1.4-.3-3.1-.3-4.5l.7,2.5h.5s2.9-6.6,2.9-6.6c.1,0,2.3.8,2.9.9Z"/>
  <path class="st12" d="M218.7,133.6c-1,.5-2.4.1-3.3.7s-2.4,3.2-2.7,4c-2.1,4.8-.3,10.4-2.9,15s-.9,1.6-1.5,1.7c-.2-.3-.9-.5-.8-1.1,1-1.7,1.9-3.6,2.3-5.6,1-4.8-.2-10.4,3.4-14.1s3.9-2.6,5.5-.6Z"/>
  <path class="st13" d="M85.7,255.7c-.2.8-.2,1.8-.2,2.7h-5.3c-.4,0-2.6-.7-3-1-1.3-.9-1.1-3-.4-4.3s1.9-1.6,2.7-2.5c.3,1.3.1,3.3,1.4,4s1.9,0,2.7.2,1.4.6,2.1.8Z"/>
  <path class="st22" d="M189.2,265c-.8,3-1.7,7.4-3.5,9.8s-4.8,4.7-5.9,5.5-2.8,1.7-4.5,1.9c0-.2.8-.9,1-1,.7-.4,1.5-.6,2.2-1,2.4-1.4,4.8-5.9,5.7-8.5.7,0,1.4-1.3,1.8-1.9,1-1.6,1.5-3.9,3.3-4.9Z"/>
  <path class="st5" d="M230.5,144.7c-.3.3-.6.4-1,.2-.2-1.2-2-4.5-2.9-5.4s-2.2-1.1-1.9-2.5c0,0,.2-.2.5-.3,2-.5,3.8,0,4.5,2s.7,4,.9,6Z"/>
  <path class="st11" d="M212,131.4c-.4.6-1.2,1.2-1.5,1.7-.5.2-.9.3-.8-.4,1-2.4,1.6-5.2,2.7-7.6s.5-1.4,1.2-1.5c2.1-.1.5,3.7.1,4.6s-1.2,2.3-1.7,3.1Z"/>
  <path class="st5" d="M208.2,140.3c0,1.1.2,2.9-.3,3.8s-3.4,3.3-3.9,3.7-.9.8-1.6.7-.8-.4-1-.5c0-.6.7-1.3,1.1-1.7,1.5-1.6,2.9-3.2,4.4-4.9s.8-1,1.3-1.2Z"/>
  <path class="st16" d="M221.3,149.1c.8-.2,1.1-1.9,1.2-2.6.3-2.4-.1-6.2.7-8.3.4.2.6.9.7,1.4.8,2.6.9,5.5-.2,8.1s-1.2,2.5-2.2,2.2-.2-.5-.3-.7Z"/>
  <path class="st5" d="M241.1,230.7c2.8,1,4.3,1,5.9,3.9s.5,1.4.7,1.8c-.1.2-.2.4-.5.3-.4.1-.5-.3-.7-.3l-.5-.8c-.8-.7-1.5-1.7-2.4-2.3s-2.6-1.2-2.5-2.6Z"/>
  <path class="st22" d="M231.3,155.5c-.3,0-.5-.2-.7-.4-1.9-2.2-.8-7.5-1.2-10.2.4.2.7.1,1-.2.2,1.8.2,1.8,0,3.6s.3,5.5.8,7.1Z"/>
  <path class="st5" d="M192.4,156c-.2,1.3.2,1.4-1,2.4s-4.9,3.1-6.5,3.9-.5.3-.8.2c.5-.4,1-1,1.5-1.4,2.3-1.7,4.5-3.6,6.9-5.1Z"/>
  <path class="st16" d="M232,156.1c1.3-1.4,1.1-3.7.8-5.4l.2-.3c.6.2.4.8.6,1.4.3,1,1.8,5,.9,5.6s-2-1-2.5-1.3Z"/>
  <path class="st16" d="M198.9,184.2c-.5,0-.3-.3-.3-.6,0-2.1.1-4.2.5-6.3.1,0,.3.2.4.3.2.5-.5,4.4-.6,5.3s0,.8,0,1.3Z"/>
  <path class="st13" d="M155.6,236.4c-.2.3-.3,1-.8,1.2-.9-.2-1.6-.2-2.6,0,0-.4.2-.4.4-.5.8-.4,2-1.1,2.9-.7Z"/>
  <path class="st26" d="M247.6,236.4s.2,0,.3.1c.5.8.4,2,.5,2.9l-1.3-2.7c.3,0,.4-.1.5-.3Z"/>
  <path class="st10" d="M176.2,281.3c-.2.1-1.1.8-1,1-.6,0-1.8.5-1.8-.3l2.9-.7Z"/>
  <path class="st22" d="M108.9,255.2h-.3c-.2-.5.1-.9.2-1.2.3.2.2.8.2,1.2Z"/>
  <path class="st22" d="M108.9,256.6h-.2l.2-.5s.1.1.2.3,0,.2-.2.3Z"/>
  <path class="st24" d="M204,107.8s.2.2.3.2.5,0,.7,0l.3.2c3,.1,6.5,4.1,6.4,7s-.2.6-.2.7c-1.9.5-2.7-1.9-4.3-2.5-.1,0-.7,2.2-.8,2.5-4.1,11-11.5,20.4-20.2,28.1-12.1,10.8-24.7,16.9-40.8,19.5-18.4,3-36.3.6-53-7.4-7.7-3.7-16.5-11.8-22.1-18.1s-.9-2.1-1.7-1.6c-.8,1.6-1.4,3.1-2.4,4.7s0,.5-.5.4c-.1-.2-.6-.1-.8-1.1-.4-2.4.9-5.9,2.4-7.8s3.7-3.4,5-3.2.8,1.1,1,1.3c0,.7-3,2.8-2.7,3.2,5.9,1.1,11.8,3.4,17.7,4.3,6.3,1,13.5,1.5,19.9,1.7,14.5.4,28.7-1.5,42.9-4.2s7.6-1.9,11.3-3.1,9.7-3.3,10-3.7h.3s0-.3,0-.3c.2,0,.4,0,.5,0,2.4-.5,8.1-3,10.6-4.1,4.9-2.2,10.4-5.8,14.8-8.8s3.5-2.5,5.2-3.9c0-.4-.2-.2-.4-.3-1.2-.3-2.7,0-3.5-1.3.2-1.7.1-2,2-2.2s.4,0,.5-.2c.4,0,.9,0,1.3,0ZM180.8,129.1c-1.6.1-6.6,2.6-8.5,3.3-6.3,2.4-12.7,4.9-19.4,6.3-16.5,3.6-32.7,5.3-49.5,4.1-4.9-.3-9.6-.7-14.5-1.6-5-.9-10-2.3-14.9-3.5,5.3,5.2,10.8,10.7,17.1,14.6,14.4,8.8,32.9,11.7,49.6,9.4s4.6-1,7-1.4c4.2-.8,7.6-1.1,11.7-2.6,12.7-4.6,26-15,34.4-25.5,3.5-4.5,6.9-9.3,9.3-14.5s.8-1.7,1.1-2.6c-1.1.8-2.2,1.7-3.3,2.6-4.6,3.3-10.8,7.2-16,9.6s-2.9,1-4,1.8Z"/>
  <path class="st19" d="M186,82.7c1.9-.2,2.7.4.6,1.1s-9.1,1.8-11.5,1.5-2.3-.5-3.4-.6c-1.7-.2-2.8-.4-4.4-.7s-3,0-4.2-.8-.6-.7-1-.8c-.7-.3-2.3-.4-3.2-.7-2.6-.7-6.7-2.4-8.9-3.8s-5-3.6-5.7-4.7-.3-1.2-.5-1.5-1-.7-1.4-1c-2.2-2-3.6-3.9-4.8-6.6s-1.9-4.1-1.7-4.6c.1-.4.8-.3.9-.5s.6-1.7.7-2c3.7-7.9,12.5-14.7,21.4-15.2,18.6-1.1,31.7,17.4,28.8,34.8-.4,2.1-1.1,4.1-1.7,6.2ZM182.8,83.1c1.1,0,1.1-.8,1.4-1.7,6-18.3-7.4-41.3-28.1-37-5.1,1.1-13.7,6.7-15.3,11.8s0,.1,0,.2c0,0-.1,0-.2.2-.3.8-1,1.8-1.3,2.8s-.1.5.2.4c1.9-2.9,4.3-5.5,7.3-7.3,19.8-11.5,37.4,7.2,36.1,27,0,1-.6,2.5-.5,3.4s0,.2.3.3ZM139.5,64.1c0,.8,2.8,4.4,3.5,5.1s1.7,1.3,2,1.9c.6,1.1-.1,1.2,1.2,2.3,3,2.7,8.2,5.4,12,6.6s3.1.3,4.4.8.8.6,1.3.9c1.2.7,10.1,1.8,11.9,1.9s3.5-.3,5.1-.4c.1-1.1.3-2.1.4-3.2s0-.9,0-1.3c.3-.6.3-1.7,0-2.4,0-.6,0-1.3,0-1.8s0-.4-.2-.5c0-.3,0-.6,0-.8s-.2-.3-.2-.3c0-.5,0-1-.2-1.5s-.2-.3-.2-.3c-3.8-16.4-20.3-27.3-35.3-15.4-1.3,1-2.4,2.1-3.3,3.4s-2.7,4.4-2.6,5Z"/>
  <path class="st25" d="M123,61.8c.5.5,0,3.5-.2,4.3-.3,1.2-1.1,2.4-1.6,3.6s-.8,3.1-1.4,4.7c-2.4,6.4-7.1,11.6-13,15s-3.5,2.1-5.6,3.6-4.4,2.3-7.7,3.2-7,3.9-11.1,4.4-.9,0-1.4,0c-.4-.4,1.1-1.5,1.5-1.5v-.2c-2.2-2.8-4.1-5.6-5.3-8.9-5.2-14.2.3-31.6,14.6-37.7,10.3-4.4,22.2-.5,29.4,7.6.4.5.7,1.2,1.1,1.6s.5.2.6.3ZM85,98.2c0,0,.2,0,.3,0-.4-1.6-1.4-2.9-2-4.5-4.1-11-1.4-25.1,7.9-32.6,7.9-6.4,22.2-5,28.9,2.5.2-.1,0-.4,0-.6-.6-1-1.6-2.4-2.5-3.1-2-2.6-5.5-4.5-8.5-5.7-17.6-6.5-32.5,8.6-31.6,25.9s2.2,10.8,4.9,15.2,1.6,2.6,1.9,2.8c.4.4.4.1.8,0ZM85.5,94.5c.2.4.9,3,1.3,3,.4-.6,1.1-.6,1.6-.9,4-2,7.6-2.2,11.3-4.7s2.5-2.1,3.8-2.9,2-.9,3-1.4c3.1-1.7,6-4.8,8.4-7.4s3.7-7.7,5.2-11.6,1-1.6,1.1-2.3-.8-1-1.1-1.3c-9.8-9.5-25.5-8.6-32.6,3.6s-5.3,16.7-1.8,26Z"/>
  <path class="st22" d="M73.5,130.8s.7.2.8.6-.3,1-.1,1.2c1.8.7,3.5,1.6,5.3,2.2,8.8,2.7,19.2,3.9,28.3,4.9s.7-.2.6.3c-6.4-.2-13.6-.7-19.9-1.7-6-.9-11.8-3.2-17.7-4.3-.3-.4,2.7-2.4,2.7-3.2Z"/>
  <path class="st22" d="M200.1,110.1c.8,1.3,2.2,1,3.5,1.3s.5-.1.4.3c-1.6,1.4-3.4,2.7-5.2,3.9-4.4,3-10,6.7-14.8,8.8s-8.2,3.6-10.6,4.1c0-.4.2-.3.5-.5,2.5-1.1,5-2.1,7.5-3.3,6.8-3.3,13.1-7.7,18.9-12.5.3-.4-.3-.9-.4-1.5s.2-.6.2-.7Z"/>
  <path class="st2" d="M93.9,40.6c2.4-.3,1.9,1.7.9,3.1s-4.7,4.7-6,4.8-1.7-1-1.5-2c.3-2,4.7-5.6,6.6-5.8Z"/>
  <path class="st2" d="M84.3,105.3c1.5-.1,7.4-.4,6.5,2.3s-2,.9-2.9.8c-2,0-4.9,0-6.7-.7-2.7-1.2,2-2.3,3-2.4Z"/>
  <path class="st11" d="M156.2,28c2.1-.5,5.8,1.3,7.1,2.9s.8,1,.6,1.6c-.2.3-2.7,0-3.2,0-1.3-.2-4.9-1.1-5.5-2.2s0-2,.9-2.2Z"/>
  <path class="st2" d="M201.8,87.1l-9,3.1c-2.2.3-2.2-1.4-.7-2.5s5.7-2,7.9-1.8,1.9.4,1.8,1.2Z"/>
  <path class="st2" d="M138.1,91.8c-.3,0-.4-.2-.5-.4-1.3-1.9-3.7-7.7-4.6-10s-.5-1.2-.4-1.6.7-.9,1.2-.7c.8.4,2.3,4.1,2.6,5.1.9,2.4,1.5,5,1.7,7.6Z"/>
  <path class="st2" d="M80.1,109.5c1.4-.2,3.2.7,2.1,2.1s-4.3,1.3-5.3,1.4-2.2.2-2.7.2-.4,0-.6-.3c1.2-1.9,4.4-3.1,6.5-3.4Z"/>
  <path class="st13" d="M70.4,138c-.5,1.3-2.6,8-4.4,4.3s-.1-.8-.1-.8c.4,0,.3-.2.5-.4,1-1.6,1.6-3.1,2.4-4.7.7-.5,1.5,1.3,1.7,1.6Z"/>
  <path class="st2" d="M200.7,90.2c1.2-.2,4.3.2,5.4.7s.2.8-.5,1.1c-1.3.5-5.4,1.4-6.3.2s.4-1.8,1.4-2Z"/>
  <path class="st2" d="M102,36.6c.4,0,.8-.2.9.4-1,1.1-4,4.1-5.6,3.6s-.6-.8-.5-1.3c.4-1.5,3.8-2.6,5.2-2.7Z"/>
  <path class="st13" d="M211.5,115.8c0,.6.4,2.3-.6,2.4s-3.3-2.2-4.4-2.4c.1-.3.6-2.5.8-2.5,1.5.6,2.4,3.1,4.3,2.5Z"/>
  <path class="st22" d="M202.6,107.8c-.1.2-.3.1-.5.2v-.3c.4-.1.5.2.5.2Z"/>
  <path class="st22" d="M204,107.8v-.2c0,0,.3,0,.3,0v.3c-.2,0-.3-.2-.3-.2Z"/>
  <path class="st22" d="M205,107.9s.2-.2.3-.2v.3s-.3-.2-.3-.2Z"/>
  <path class="st22" d="M172.9,128.6v.3s-.3,0-.3,0c.1-.1-.3-.3.3-.3Z"/>
  <path class="st27" d="M229.8,268.7c.2.5.3,1.4.5,2-2.1.2-3.1-1.9-4.1-3.4s0-.5-.5-.4c0-.7-.9-2.4-1.1-3.4-.5-2.4-.5-4.8,0-7.2s.7-1.7.9-2.3.1-1.8.3-2.6,1.2-3.2,1.2-3.6-.6-1-.6-1.7c0-1.5,2.2-5.8,3.1-7.2,1.2-2,5.6-7.4,8-7.6s1.6.8,1,1.7c-2.6,2.3-5,4.9-6.6,8s-2.3,4.4-2.4,5.2.2,1.4,0,2.3c-.3,2.1-1.6,4.7-1.8,6.8-.5,5.4.3,8.7,2,13.5Z"/>
  <path class="st2" d="M219,151.6c1.9-.2,4.9,0,6.7.6s5.7,3.7,4.5,5.9-5.5.4-7.3,0-8.3-.3-8.2-3.6,2.6-2.7,4.3-2.9Z"/>
  <path class="st11" d="M183.1,198.8c4.1-.9,6.5,7.2,4.7,9.9s-2-.7-2.5-1.3c-.8-1-2.5-4-3-5.2s-.6-3,.9-3.3Z"/>
  <path class="st2" d="M124.3,238.8c1.3-.4,1.8.5,2.1,1.5s1.7,6,1.8,7.3.1,1.4-.4,1.7c-1.8.6-3.7-3.1-4.1-4.4s-1.1-5.6.6-6.1Z"/>
  <path class="st2" d="M103.8,215.3c2.9-.4,1.4,6.7.7,8.1-1.2,2.5-3,1-3.2-1.2s.3-6.6,2.5-6.9Z"/>
  <path class="st2" d="M208.1,263.3c-2.5,1.1-5.2-3.6-5.2-5.6s1.1-1.9,2.2-1.4c1.7.8,3.3,5.1,3,7Z"/>
  <path class="st2" d="M210,196.3c-1.1,0-2-1.5-2.2-2.4s-.7-6.5,1-6.7,1.2,1.2,1.2,2c.2,1.7,0,3.5,0,5.2s0,1.3,0,1.9Z"/>
  <path class="st11" d="M179.9,205.7c3.3-.8,4,5.8,2.6,6.2s-3.6-2.9-3.7-4.1.3-1.9,1.1-2Z"/>
  <path class="st11" d="M231.3,168.6c.5,0,1.4.5,1.5.9.6,2-1.4,4.7-2.9,5.9s-1.2,1.2-1.2.1.9-5.1,1.5-6,.7-.9,1.1-.9Z"/>
  <path class="st2" d="M210.2,171.2c-2.1,0-3.9-1-4.9-2.7s-.2-4,1.8-2.4,3.8,4.5,3.2,5.1Z"/>
  <path class="st2" d="M132.7,185.9c.6-.1,1.4.3,1.6.9.2,1.1-1.2,4.9-2.1,5.5s-1.5-.7-1.6-1.5c-.2-1.2.7-4.6,2.1-4.9Z"/>
  <path class="st2" d="M133.4,248.3c-1.4.2-4.6-3.4-2.7-4.3s2.9,2.8,2.7,4.3Z"/>
  <path class="st2" d="M210.8,260.1c1.6-.5,2.5,1.8,1.9,3.1-1.6.7-4-2.5-1.9-3.1Z"/>
  <path class="st2" d="M107.2,221.3c2.7-.8,1.4,3.8.5,3.8s-1.8-3.4-.5-3.8Z"/>
  <path class="st2" d="M137.6,185.4c1.6-.3,1.6,1.8.2,2.7-2.4,1.6-1.7-2.5-.2-2.7Z"/>
  <path class="st19" d="M175.6,243.3c0,.5-.2.5-.6.5-1.9.2-4.2-.2-6.2,0s-2.7.7-3.1.3-.1-1,.3-1.3c1.7-1.3,5.9-.8,7.9-.3s1.1.6,1.7.8Z"/>
  <path class="st10" d="M218.7,133.6c2.3,2.7,1.4,9.7,1.7,13.2s.4,1.4.8,2.3,0,.5.3.7c.9.3,1.9-1.5,2.2-2.2,1.1-2.5,1-5.5.2-8.1s-.3-1.1-.7-1.4c.5-1.2.4-.8,1.5-1.2-.2,1.4,1.1,1.8,1.9,2.5s2.8,4.2,2.9,5.4c.4,2.7-.8,8,1.2,10.2s.4.4.7.4c.4,1.1.2.4.7.7s1.9,1.7,2.5,1.3-.7-4.6-.9-5.6,0-1.1-.6-1.4c0-1.1.3-3.6,1.4-4.1s.5,0,.8,0c-.2,1,.6,1.2,1.1,1.9.9,1.2,1.5,4.4,1.6,6s-.5,3.7-.8,5.5c-.7,5-1.2,8.7-3.4,13.4-.9,2.1-2.4,4-2.8,6.2s-.2,2.6-.4,3.8c-.6,3.7-1.7,7.3-1.7,11-.3.2-2.3,2.6-2.7,3.1-1.1,1.3-2.2,3.4-3.2,4.5s-2.4,1.9-3.4,2.7-2.5,2.6-3.6,3-4.3.9-5.4,1-1.7-.5-2.6-1.2c-2.8-2.4-5.5-5.5-8.2-8.1s-.3-.4-.7-.4c-1.2-1.9-5.3-7.6-7.1-8.6s-1-.4-1.4-.3-.6.6-.6.7c-1-.6-2,.4-1.9,1.4l3.2,6.6c0,.5-.8,1-.9,1.7-.5,2.3,1.1,3.7,2.1,5.6s2.1,4.4,3.2,6.6,1.8,2.8,2,3.5c1.4,5,2.9,12.1,2.6,17.2s-1.2,5.9-.7,8.8c2,.3,2.6-1.6,3.4-3l.4,1.3.3.2c.7,0,1.3-1.6,1.5-2.2.3-1,.5-2.2.6-3.2,1.7-.3,3.4-.6,5.1,0s3.5,1.6,3.6,2.3-.1,1.4-.2,1.6c-.1.6-.6,1.4-.8,2.2-.8,3.7-.5,9.9.9,13.4s1,2.2,1.3,2.3c.4.2,1.3-.6,1.5-1,.5-1.1.7-3.7,1.1-5.1.9-2.7,2.3-5.2,3.5-7.7s2.4-5.9,5.3-8.4,6-3.5,8.1-4,3.4.5,4.9,0c.4.1.6.2.8.3,0,1.4,1.6,1.8,2.5,2.6s1.5,1.6,2.4,2.3l.5.8c-3.5-2.1-6.3.4-8.1,3.2-5,7.6-6.1,18.5-4.5,27.3-1.3.8-2.3,1.9-4,1.7-1.7-4.9-2.5-8.1-2-13.5s1.5-4.6,1.8-6.8-.2-1.7,0-2.3,1.9-4.3,2.4-5.2c1.7-3.1,4-5.7,6.6-8,.5-.9,0-1.8-1-1.7-2.4.2-6.8,5.6-8,7.6s-3.1,5.7-3.1,7.2.7,1.4.6,1.7c0,.5-1.1,2.7-1.2,3.6s-.1,1.8-.3,2.6-.7,1.5-.9,2.3c-.5,2.4-.5,4.8,0,7.2s1.1,2.7,1.1,3.4-1,2.4-1.8,2.9-1.5.3-1.9.3c-2.3,0-5.3-.8-7.7-1-2.7-.2-5.4,0-8.1,0s-1.8-.6-3.1-1.3c-2.6-1.3-5.3-.9-7.9.1s-2.2,1.2-3.3,1.6c0-.6,0-1.2,0-1.8s-.2-.2-.2-.2c0-.6-.1-2.3,0-2.7s.9-.5,1.3-1.3c1.2-3.2.9-12.4,0-15.7s-1.4-2.9-1.8-4.6,0-3.1-1.4-4.5c-2-2-8.2-5-11-5.4s-3.3-.2-4.9-.7-1.5-1.1-3-1.2c-4.2-.3-12.5,1.8-15.4,5-.9-.4-2.1.3-2.9.7s-.5,0-.4.5c-.7.2-.9.5-1.5.8-5.9,3.3-8,8.9-9.8,15.2s-1,9.5.3,14.1c-.6-.5-1.1-.9-1.8-1.2-2.7-1.1-6-1.5-8.8-2.4-1.2-1.2-2.4-2.7-3.4-4.1s-1.8-3.4-2.8-4.1-.8-.3-1.1-.6-1.5-3.7-1.6-4.3c-.2-1.6,0-4.3-.5-5.8s-.9-.5-1.6-.5c0-2.2,0-4.4.4-6.6s1.9-9.4,1.4-10-.9,0-1.1-.6,0-1.4,0-1.8c.2-3.2,2.4-10.6,1.4-13.2s-1-.8-1.1-1.3.2-1,.2-1.5c.1-3.3.2-8.4-.2-11.6s-.4-4-2.2-2.9c-.1.7-.4,1.2-.7,1.8-1.3,3-1.7,6.9-2.5,10.2-1.5,5.9-3.3,11.7-4.7,17.6s-1.2,4.2-1.4,5.7,0,1.4,0,1.8.6.4.7.6-.4,1.6-.5,2c-.8,3.9-2,10.3-2.1,14.2s-.1,3,1.5,3c0,.7,0,1.3-.2,2s-.3.7-.2,1.2h.3c0,.3,0,.6,0,.8l-.2.5c-1.5-.7-2.5-1.5-4.3-1.7-4-.4-4.9,1-8.2,1.9s-2.6.1-4.1-.3c-.5-1-1-2-.9-3.2.2-.2.4-.5.7-.7.8-.6,2.1-.8,2-2s-.3-.8-.8-.9c-2.7-.5-6.8,3.6-7.5,6-.7-.2-1.4-.7-2.1-.8s-2,.2-2.7-.2c-1.3-.7-1.1-2.8-1.4-4,.8-.9,1-2.2-.5-1.9s-4.4,2.6-5,3.6c-.4,0-.5,0-.7-.4s-1.1-2.6-1.1-2.9c.1-1.5,4.3-1.8,5.4-2.1s3.6-1.3,5.1-1.5c2.4-.2,7.6,0,10.1.2,2.6.3,2.9.6,5.7.2s2.7.2,2.6-1.9-1.7-3.2-3.3-4-2.1-.5-2.9-.9-1.2-.9-1.8-1.2-1.2-.3-1.1-.7,1.2-1.4,1.4-1.7c2.9-4.4,4-11.2,6.2-16.3s4.7-7.7,5.1-10.2-.2-1.9-.1-2.5,1.4-2.8,1.7-3.5c1.2-2.3,3.1-6.6,4.5-8.6s6.1-7,7.6-7.9,5.2-2.4,6.7-2.5,1.4,0,2,0c5.9-.7,11.6-.8,17.5-1.2s4.3-1.1,6.4-1.3c5.7-.6,10.6-.7,16.3-2,3.8-.9,7.7-2.6,11.6-3s3.8,0,5.7-.4,2-.6,3-.7c3-.3,8.6.6,11.3,1.8s0,.1.2.2c-.4,2.1-.6,4.2-.5,6.3s-.2.7.3.6c0,.2,0,.4,0,.7,0,1.4-.1,3.1.3,4.5s2.4,4.1,3.3,4.2c2.4.4,1.8-2.5,1.9-3.9.3-2.7,1.1-5.3,1.3-8,1,.2,3.8.4,4.7,0s.5-.2.5-.6c.7.3,3.1.2,3.8-.2.9-.5-.8-2-1.3-2.4-1.1-.7-2.6-.9-3.6-1.6s-2.9-2.5-3.8-3.3c-1.7-1.6-6.4-7.5-7.3-9.6s-1.6-5.2-1.6-6.9.5-4.4.7-6.5c1.6-.6,3.4-.2,4.8.7s1.6,4.3,4.5,5.4,2.4-.1,1.3-1.8c.7-.2,1.2-1.2,1.5-1.7,2.5-4.5.8-10.1,2.9-15s2.1-3.6,2.7-4,2.3-.2,3.3-.7ZM219,151.6c-1.7.2-4.2.8-4.3,2.9-.1,3.3,5.9,3.2,8.2,3.6s6.1,2,7.3,0-2.8-5.3-4.5-5.9-4.8-.8-6.7-.6ZM210.2,171.2c.6-.6-2.5-4.6-3.2-5.1-2-1.5-3,.4-1.8,2.4s2.9,2.7,4.9,2.7ZM231.3,168.6c-.4,0-.9.6-1.1.9-.6.9-1.5,4.9-1.5,6s.8.3,1.2-.1c1.5-1.2,3.5-3.9,2.9-5.9s-1-1-1.5-.9ZM137.6,185.4c-1.5.2-2.2,4.4.2,2.7s1.4-3-.2-2.7ZM132.7,185.9c-1.4.3-2.3,3.7-2.1,4.9s.6,2,1.6,1.5,2.3-4.4,2.1-5.5-.9-1-1.6-.9ZM210,196.3c0-.6,0-1.3,0-1.9,0-1.6.2-3.5,0-5.2s-.2-2.1-1.2-2c-1.7.2-1.3,5.5-1,6.7s1.2,2.5,2.2,2.4ZM183.1,198.8c-1.5.3-1.3,2.2-.9,3.3s2.2,4.1,3,5.2,1.8,2.3,2.5,1.3c1.9-2.6-.5-10.8-4.7-9.9ZM179.9,205.7c-.8.2-1.2,1.3-1.1,2,.1,1.2,2.5,4.5,3.7,4.1s.7-6.9-2.6-6.2ZM103.8,215.3c-2.2.3-2.6,5.2-2.5,6.9s1.9,3.7,3.2,1.2,2.2-8.5-.7-8.1ZM107.2,221.3c-1.3.4-.3,3.8.5,3.8s2.2-4.7-.5-3.8ZM124.3,238.8c-1.8.5-1.1,4.8-.6,6.1s2.3,5,4.1,4.4c.6-.4.5-1.1.4-1.7-.1-1.3-1.3-5.9-1.8-7.3s-.8-1.9-2.1-1.5ZM133.4,248.3c.3-1.4-.6-5.3-2.7-4.3s1.3,4.5,2.7,4.3ZM208.1,263.3c.4-1.9-1.3-6.1-3-7s-2.2.1-2.2,1.4c0,2,2.7,6.7,5.2,5.6ZM210.8,260.1c-2.1.6.3,3.8,1.9,3.1.6-1.3-.3-3.6-1.9-3.1Z"/>
  <path class="st2" d="M178.9,237.5c2.2-.5,4.6,2.2,4.9,4.1s0,1.9-.9,1.4c-.8-.9-4.7-3.2-4.9-4.2s.3-1.2.9-1.4Z"/>
  <path class="st2" d="M187,248.7c-.3,0-.4,0-.6-.2-.3-.2-2.1-2.1-2.2-2.4-.3-.9-.1-2.1,1-2.2,2.3-.2,2.3,3.2,1.8,4.7Z"/>
  <path class="st23" d="M180.8,129.1c3.9-.3,8.9,1.2,12.5,2.7s.5,0,.5.5c-8.4,10.5-21.7,20.9-34.4,25.5s-7.5,1.8-11.7,2.6c-2.3.4-4.6,1.1-7,1.4-16.7,2.4-35.2-.5-49.6-9.4.6-1.1,1.8-2.3,2.8-3.2,3-2.8,5.2-4.3,9-5.9s.5,0,.5-.5c16.8,1.2,33.1-.5,49.5-4.1,6.6-1.4,13-3.9,19.4-6.3s6.9-3.2,8.5-3.3Z"/>
  <path class="st6" d="M103.4,142.9c0,.4-.2.3-.5.5-3.8,1.6-6,3.1-9,5.9s-2.2,2.1-2.8,3.2c-6.3-3.9-11.9-9.5-17.1-14.6,5,1.2,9.9,2.6,14.9,3.5,4.8.8,9.6,1.2,14.5,1.6Z"/>
  <path class="st6" d="M193.7,132.3c0-.4-.2-.3-.5-.5-3.5-1.5-8.6-3-12.5-2.7,1.1-.8,2.7-1.2,4-1.8,5.1-2.3,11.3-6.3,16-9.6s2.2-1.7,3.3-2.6c-.3.9-.7,1.8-1.1,2.6-2.4,5.2-5.7,10-9.3,14.5Z"/>
  <path class="st7" d="M180.6,71l-.2.3h.3c0,.5.1,1,.2,1.5l-.2.3h.3c0,.3,0,.6,0,.8s-.3.3-.2.5h.3c0,.6,0,1.3,0,1.8,0,.9,0,1.5,0,2.4s0,.9,0,1.3c-3,.7-6.1,1-9.2.8-7.8-.4-15.8-2-22.4-6.3-3.9-2.5-6.3-6.5-9.3-9.8s-.5-.6-.9-.7c0-.6,2.1-4.3,2.6-5,.9-1.3,2-2.4,3.3-3.4,14.9-12,31.4-1.1,35.3,15.4ZM152.5,75.1c6,5.4,15.6,3.1,18-4.8,2.8-9.5-6.7-17.8-15.7-13.6-7.1,3.4-8,13.2-2.3,18.4Z"/>
  <path class="st20" d="M182.8,83.1c-.3,0-.3.1-.3-.3,0-.9.5-2.3.5-3.4,1.3-19.8-16.3-38.5-36.1-27-3,1.7-5.4,4.4-7.3,7.3-.3,0-.3-.1-.2-.4.3-1,1-2,1.3-2.8,0,0,.1,0,.2-.2s0-.1,0-.2c.9-.4,1.5-1.5,2.1-2.2,8.9-9.6,21.7-11.2,31.9-2.5s10.4,17,9.1,26.4-.9,3.4-1.2,5.1Z"/>
  <path class="st21" d="M182.8,83.1c.3-1.7.9-3.4,1.2-5.1,1.2-9.5-1.7-20.1-9.1-26.4s-23-7.1-31.9,2.5c-.6.7-1.2,1.8-2.1,2.2,1.6-5.1,10.2-10.8,15.3-11.8,20.7-4.3,34.1,18.7,28.1,37-.3.9-.3,1.7-1.4,1.7Z"/>
  <path class="st18" d="M181.3,80c0,1.1-.2,2.1-.4,3.2-1.6.1-3.5.4-5.1.4s-10.7-1.2-11.9-1.9-.6-.7-1.3-.9c-1.3-.4-3-.3-4.4-.8-3.8-1.2-9.1-3.9-12-6.6s-.6-1.2-1.2-2.3-1.5-1.3-2-1.9-3.5-4.3-3.5-5.1c.4,0,.7.4.9.7,3,3.3,5.5,7.3,9.3,9.8,6.6,4.3,14.6,5.9,22.4,6.3s6.2-.1,9.2-.8Z"/>
  <path class="st18" d="M181.3,78.7c0-.9,0-1.5,0-2.4.3.6.3,1.7,0,2.4Z"/>
  <path class="st18" d="M181.3,74.5h-.3c-.1-.2.2-.5.2-.5.2,0,.2.3.2.5Z"/>
  <path class="st18" d="M180.8,71.3h-.3s.2-.3.2-.3c0,0,.1,0,.2.3Z"/>
  <path class="st18" d="M181.1,73.2h-.3s.2-.3.2-.3c0,0,.1,0,.2.3Z"/>
  <path class="st21" d="M140.6,56.5c0,0,.1-.1.2-.2,0,0,0,.1-.2.2Z"/>
  <path class="st7" d="M120,64.9c-1.1,3.7-2.2,7.2-3.9,10.6s-3.5,6.1-4.8,6.2c5.8-8.8-1.5-20.2-12.1-17.2s-9,7.7-7.7,13.4,9.7,10.7,16.4,7c-2.8,2.5-6.2,4.5-9.8,6.1s-8.2,3.3-12.5,3.5c-3.5-9.3-3.2-17.3,1.8-26s22.8-13.1,32.6-3.6Z"/>
  <path class="st20" d="M117.6,59.9c.9.7,1.9,2.1,2.5,3.1s.3.5,0,.6c-6.7-7.5-21-8.9-28.9-2.5-9.3,7.5-12.1,21.6-7.9,32.6.6,1.5,1.5,2.9,2,4.5-.1,0-.3,0-.3,0-3.3-5-5.4-10.8-5.7-16.9-.9-16.7,12.9-30.3,29.7-25.5s6.4,2.3,8.6,4.1Z"/>
  <path class="st3" d="M117.6,59.9c-2.2-1.8-5.8-3.3-8.6-4.1-16.9-4.8-30.6,8.9-29.7,25.5.3,6.1,2.4,11.8,5.7,16.9-.3.1-.4.3-.8,0s-1.6-2.3-1.9-2.8c-2.7-4.4-4.6-10-4.9-15.2-.9-17.3,14.1-32.4,31.6-25.9,3.1,1.1,6.5,3.1,8.5,5.7Z"/>
  <path class="st18" d="M85.5,94.5c4.4-.2,8.6-1.8,12.5-3.5s7-3.5,9.8-6.1,3.1-3.2,3.4-3.2c1.3-.1,4-4.7,4.8-6.2,1.8-3.4,2.9-6.9,3.9-10.6.3.3,1.2.8,1.1,1.3s-.8,1.6-1.1,2.3c-1.4,3.9-2.2,8.4-5.2,11.6s-5.2,5.7-8.4,7.4-2,.9-3,1.4-2.5,2-3.8,2.9c-3.7,2.5-7.3,2.7-11.3,4.7s-1.2.2-1.6.9c-.4,0-1.1-2.6-1.3-3Z"/>
  <path class="st9" d="M152.5,75.1c-5.8-5.1-4.9-15,2.3-18.4,9-4.3,18.6,4,15.7,13.6-2.3,7.9-12,10.2-18,4.8ZM162.9,58.4c-3.4.5-4,5.5-1.5,7.5s6.2.6,6.6-2.4-1.8-5.5-5.1-5.1Z"/>
  <path class="st0" d="M111.2,81.7c-.2,0-2.8,2.7-3.4,3.2-6.7,3.7-14.6.5-16.4-7s2-11.8,7.7-13.4c10.6-3,17.9,8.5,12.1,17.2ZM105.8,66.1c-5.6.2-5.7,9.5.6,8.9s4.6-9.1-.6-8.9Z"/>
  <path class="st1" d="M162.9,58.4c3.2-.5,5.4,1.9,5.1,5.1s-4.2,4.3-6.6,2.4-1.8-7,1.5-7.5Z"/>
  <path class="st1" d="M105.8,66.1c5.3-.2,5.6,8.4.6,8.9s-6.2-8.7-.6-8.9Z"/>
</svg>